*********************************************************************

Django Unchained 2012 1080p BluRay x264 3 Audio - alrmothe

*********************************************************************

TiTLE : Django Unchained 
YEAR: 2012
GENRE : Adventure | Crime | Drama  
imdb URL :http://www.imdb.com/title/tt1853728/
Format: Matroska
Overall bit rate: 9033 Kbps
Format version: Version 4 / Version 2
File size:  10.4 GiB
Duration:  2h 45mn
Sub:Arabic,English,,German,Hungarian
Romanian,French,Dutch,spanish
 
*********************************************************************

Video
Format : AVC 
Format/Info : Advanced Video Codec 
Format profile : High@L4.1 
Format settings, CABAC : Yes 
Format settings, ReFrames : 7 frames  
Codec ID : V_MPEG4/ISO/AVC  
Bit rate : 6614 Kbps 
Width : 1920 pixels 
Height : 800 pixels 
Display aspect ratio : 16:9 
Frame rate : 23.976 fps 
Color space : YUV 
Chroma subsampling : 4:2:0 
Bit depth : 8 bits 
Scan type : Progressive 
Bits/(Pixel*Frame) : 0.180 
Stream size: 7.45 GiB (71%)
Title: Django Unchained 2012 1080p BluRay x264 3 Audio - alrmothe


Audio#1 
Format: DTS
Format/Info: Digital Theater Systems
Mode: 16
Format settings, Endianness: Big
Codec ID: A_DTS
Bit rate mode: Constant
Bit rate : 1509 Kbps
Channel(s) : 6 channels
Channel positions:Front: L C R, Side: L R, LFE
Sampling rate: 48.0 KHz
Bit depth: 24 bits
Compression mode: Lossy
Stream size: 1.74 GiB (17%)
Language : English



Audio #2
Format: AC-3
Bit rate: 448 Kbps
Channel(s) : 6 channels
Channel positions:Front: L C R, Side: L R, LFE
Sampling rate : 48.0 KHz
Bit depth: 16 bits
Compression mode : Lossy
Stream size  : 530 MiB (5%)
Title : FRE, AC3 448
Language: French


Audio #3
Format: AC-3
Bit rate: 448 Kbps
Channel(s): 6 channels
Channel positions:Front: L C R, Side: L R, LFE
Sampling rate: 48.0 KHz
Bit depth: 16 bits
Compression mode: Lossy
Stream size: 530 MiB (5%)
Title: SPA, AC3 448
Language: Spanish


*********************************************************************

Screenshots 
http://img694.imageshack.us/img694/1821/vlcsnap2013033019h07m44.png 
http://img545.imageshack.us/img545/8431/vlcsnap2013033019h08m40.png 
http://img836.imageshack.us/img836/922/vlcsnap2013033019h12m15.png 
http://img29.imageshack.us/img29/2089/vlcsnap2013033019h13m13.png 
http://img844.imageshack.us/img844/7383/vlcsnap2013033019h13m28.png 
http://img837.imageshack.us/img837/9917/vlcsnap2013033019h16m14.png 
http://img580.imageshack.us/img580/7014/vlcsnap2013033019h20m17.png
